<mxfile host="app.diagrams.net" modified="2023-03-04T17:52:47.282Z" agent="5.0 (Windows NT 10.0; Win64; x64) AppleWebKit/537.36 (KHTML, like Gecko) Chrome/110.0.0.0 Safari/537.36" etag="EOJkU1GpAVGG48uTSsvf" version="20.8.20" type="github">
  <diagram name="Sherwin" id="_lbZI7uZ-QepwtqZpzey">
    <mxGraphModel dx="3088" dy="1965" grid="1" gridSize="10" guides="1" tooltips="1" connect="1" arrows="1" fold="1" page="1" pageScale="1" pageWidth="827" pageHeight="1169" math="0" shadow="0">
      <root>
        <mxCell id="0" />
        <mxCell id="1" parent="0" />
        <mxCell id="sCB3IG0rdzC2e4coQaYl-1" value="&lt;p style=&quot;margin:0px;margin-top:6px;text-align:center;&quot;&gt;&lt;b&gt;Etudiant&lt;/b&gt;&lt;/p&gt;&lt;hr&gt;&lt;p style=&quot;margin:0px;margin-left:8px;&quot;&gt;&lt;b&gt;PK&lt;/b&gt;&amp;nbsp;sId&lt;/p&gt;&lt;p style=&quot;margin:0px;margin-left:8px;&quot;&gt;snom&lt;/p&gt;&lt;p style=&quot;margin:0px;margin-left:8px;&quot;&gt;sexe&lt;/p&gt;&lt;p style=&quot;margin:0px;margin-left:8px;&quot;&gt;dateNaissance&lt;/p&gt;&lt;p style=&quot;margin:0px;margin-left:8px;&quot;&gt;niveau&lt;br&gt;moyenne&lt;br&gt;&lt;/p&gt;&lt;p style=&quot;margin:0px;margin-left:8px;&quot;&gt;&lt;br&gt;&lt;/p&gt;" style="align=left;overflow=fill;html=1;dropTarget=0;" vertex="1" parent="1">
          <mxGeometry x="-1450" y="-650" width="110" height="140" as="geometry" />
        </mxCell>
        <mxCell id="sCB3IG0rdzC2e4coQaYl-2" value="&lt;p style=&quot;margin:0px;margin-top:6px;text-align:center;&quot;&gt;&lt;b&gt;Dept&lt;/b&gt;&lt;/p&gt;&lt;hr&gt;&lt;p style=&quot;margin:0px;margin-left:8px;&quot;&gt;&lt;b&gt;PK&lt;/b&gt;&amp;nbsp;dId&lt;/p&gt;&lt;p style=&quot;margin:0px;margin-left:8px;&quot;&gt;nombrePhds&lt;/p&gt;&lt;p style=&quot;margin:0px;margin-left:8px;&quot;&gt;&lt;br&gt;&lt;/p&gt;" style="align=left;overflow=fill;html=1;dropTarget=0;" vertex="1" parent="1">
          <mxGeometry x="-1270" y="-650" width="110" height="140" as="geometry" />
        </mxCell>
        <mxCell id="sCB3IG0rdzC2e4coQaYl-3" value="&lt;p style=&quot;margin:0px;margin-top:6px;text-align:center;&quot;&gt;&lt;b&gt;Prof&lt;/b&gt;&lt;/p&gt;&lt;hr&gt;&lt;p style=&quot;margin:0px;margin-left:8px;&quot;&gt;&lt;b&gt;PK&lt;/b&gt;&amp;nbsp;pId&lt;/p&gt;&lt;p style=&quot;margin:0px;margin-left:8px;&quot;&gt;pNom&lt;/p&gt;&lt;p style=&quot;margin:0px;margin-left:8px;&quot;&gt;&lt;br&gt;&lt;/p&gt;" style="align=left;overflow=fill;html=1;dropTarget=0;" vertex="1" parent="1">
          <mxGeometry x="-1440" y="-470" width="110" height="140" as="geometry" />
        </mxCell>
        <mxCell id="sCB3IG0rdzC2e4coQaYl-4" value="&lt;p style=&quot;margin:0px;margin-top:6px;text-align:center;&quot;&gt;&lt;b&gt;Cours&lt;/b&gt;&lt;/p&gt;&lt;hr&gt;&lt;p style=&quot;margin:0px;margin-left:8px;&quot;&gt;&lt;b&gt;PK&lt;/b&gt;&amp;nbsp;cNo&lt;/p&gt;&lt;p style=&quot;margin:0px;margin-left:8px;&quot;&gt;cNom&lt;/p&gt;&lt;p style=&quot;margin:0px;margin-left:8px;&quot;&gt;&lt;br&gt;&lt;/p&gt;" style="align=left;overflow=fill;html=1;dropTarget=0;" vertex="1" parent="1">
          <mxGeometry x="-1450" y="-290" width="110" height="140" as="geometry" />
        </mxCell>
        <mxCell id="sCB3IG0rdzC2e4coQaYl-5" value="&lt;p style=&quot;margin:0px;margin-top:6px;text-align:center;&quot;&gt;&lt;b&gt;Section&lt;/b&gt;&lt;/p&gt;&lt;hr&gt;&lt;p style=&quot;margin:0px;margin-left:8px;&quot;&gt;&lt;b&gt;PK&lt;/b&gt;&amp;nbsp;secNo (partial)&lt;/p&gt;&lt;p style=&quot;margin:0px;margin-left:8px;&quot;&gt;cNom&lt;/p&gt;&lt;p style=&quot;margin:0px;margin-left:8px;&quot;&gt;&lt;br&gt;&lt;/p&gt;" style="align=left;overflow=fill;html=1;dropTarget=0;" vertex="1" parent="1">
          <mxGeometry x="-1280" y="-400" width="110" height="140" as="geometry" />
        </mxCell>
      </root>
    </mxGraphModel>
  </diagram>
</mxfile>
